mtllib corvette.mtl

v 0 20 250
v 0 -25 270
v -40 20 180
v 40 20 180
v -40 -15 180
v 40 -15 180
v -15 8 80
v 15 8 80
v -15 -8 80
v 15 -8 80
v -15 8 -200
v 15 8 -200
v -15 -8 -200
v 15 -8 -200
v -40 -5 80
v -90 -5 80
v -40 -20 80
v -90 -20 80
v -40 -5 -180
v -90 -5 -180
v -40 -20 -180
v -90 -20 -180
v 40 -5 80
v 90 -5 80
v 40 -20 80
v 90 -20 80
v 40 -5 -180
v 90 -5 -180
v 40 -20 -180
v 90 -20 -180

usemtl corvette_mat_1
f 1 2 6
f 1 5 2
f 1 4 3
f 1 3 5
f 1 6 4
usemtl corvette_mat_2
f 2 6 5
f 3 6 4
f 3 5 6
f 3 8 7
f 3 4 8
f 5 10 9
f 5 6 10
f 7 8 12
f 7 12 11
f 9 14 10
f 9 13 14
f 7 11 13
f 7 13 9
f 8 10 14
f 8 14 12
f 11 12 14
f 11 14 13
usemtl corvette_mat_3
f 15 16 18
f 15 18 17
usemtl corvette_mat_2
f 19 21 22
f 19 22 20
usemtl corvette_mat_3
f 16 20 22
f 16 22 18
usemtl corvette_mat_2
f 15 21 17
f 15 19 21
usemtl corvette_mat_3
f 15 20 16
f 15 19 20
usemtl corvette_mat_2
f 17 18 22
f 17 22 21
usemtl corvette_mat_3
f 23 26 24
f 23 25 26
usemtl corvette_mat_2
f 27 30 29
f 27 28 30
usemtl corvette_mat_3
f 24 26 30
f 24 30 28
usemtl corvette_mat_2
f 23 29 27
f 23 25 29
usemtl corvette_mat_3
f 23 24 28
f 23 28 27
usemtl corvette_mat_2
f 25 30 26
f 25 29 30
