mtllib dogfighter.mtl

v 0 8 105
v 0 -8 105
v -30 12 30
v 30 12 30
v -30 -12 30
v 30 -12 30
v -120 -8 -30
v 120 -8 -30
v -22 10 -60
v 22 10 -60
v -22 -10 -60
v 22 -10 -60
v 0 18 60
v -65 -6 -55
v 65 -6 -55

usemtl dogfighter_mat_1
f 1 13 3
f 1 4 13
usemtl dogfighter_mat_2
f 2 1 5
f 2 6 1
f 2 5 6
f 13 9 3
usemtl dogfighter_mat_1
f 13 10 9
usemtl dogfighter_mat_2
f 13 4 10
usemtl dogfighter_mat_3
f 3 9 14
f 4 15 10
usemtl dogfighter_mat_2
f 5 14 11
f 6 12 15
f 5 11 6
f 6 11 12
usemtl dogfighter_mat_3
f 3 14 7
f 4 8 15
usemtl dogfighter_mat_2
f 5 7 14
f 6 15 8
usemtl dogfighter_mat_1
f 1 3 7
f 1 8 4
usemtl dogfighter_mat_2
f 1 7 5
f 1 6 8
usemtl dogfighter_mat_1
f 9 12 11
f 9 10 12
usemtl dogfighter_mat_3
f 14 9 11
f 15 12 10
