mtllib player.mtl

v 0.0 0.0 90.0
v 0.0 9.0 55.0
v -11.0 2.0 55.0
v 11.0 2.0 55.0
v 0.0 -7.0 55.0
v 0.0 18.0 35.0
v 0.0 20.0 0.0
v 0.0 16.0 -28.0
v 0.0 14.0 15.0
v -16.0 -1.0 15.0
v 16.0 -1.0 15.0
v 0.0 -13.0 15.0
v 0.0 10.0 -38.0
v -14.0 -2.0 -38.0
v 14.0 -2.0 -38.0
v 0.0 -10.0 -38.0
v -13.0 3.0 48.0
v -13.0 -1.0 36.0
v -28.0 -2.0 42.0
v 13.0 3.0 48.0
v 13.0 -1.0 36.0
v 28.0 -2.0 42.0
v -16.0 0.0 10.0
v 16.0 0.0 10.0
v -14.0 -3.0 -30.0
v 14.0 -3.0 -30.0
v -42.0 1.0 20.0
v 42.0 1.0 20.0
v -58.0 -5.0 -8.0
v 58.0 -5.0 -8.0
v -48.0 -6.0 -28.0
v 48.0 -6.0 -28.0
v -82.0 -10.0 -15.0
v 82.0 -10.0 -15.0
v -68.0 -12.0 -40.0
v 68.0 -12.0 -40.0
v -19.0 1.0 -30.0
v -19.0 -9.0 -30.0
v -26.0 -4.0 -30.0
v -12.0 -4.0 -30.0
v -19.0 1.0 -58.0
v -19.0 -9.0 -58.0
v -26.0 -4.0 -58.0
v -12.0 -4.0 -58.0
v 19.0 1.0 -30.0
v 19.0 -9.0 -30.0
v 26.0 -4.0 -30.0
v 12.0 -4.0 -30.0
v 19.0 1.0 -58.0
v 19.0 -9.0 -58.0
v 26.0 -4.0 -58.0
v 12.0 -4.0 -58.0
v -8.0 10.0 -38.0
v 8.0 10.0 -38.0
v -30.0 32.0 -60.0
v 30.0 32.0 -60.0
v -12.0 8.0 -60.0
v 12.0 8.0 -60.0
v -19.0 -4.0 -58.0
v 19.0 -4.0 -58.0
v 0.0 0.0 90.0
v 0.0 14.0 20.0
v 0.0 32.0 -60.0
v 0.0 10.0 -38.0
v -13.0 1.0 48.0
v -13.0 -3.0 36.0
v -28.0 -4.0 42.0
v 13.0 1.0 48.0
v 13.0 -3.0 36.0
v 28.0 -4.0 42.0
v -42.0 -1.5 20.0
v -58.0 -7.5 -8.0
v -48.0 -8.0 -28.0
v -42.0 2.5 20.0
v -58.0 -3.0 -8.0
v -48.0 -4.0 -28.0
v 42.0 -1.5 20.0
v 58.0 -7.5 -8.0
v 48.0 -8.0 -28.0
v 42.0 2.5 20.0
v 58.0 -3.0 -8.0
v 48.0 -4.0 -28.0
v -82.0 -8.0 -15.0
v -82.0 -12.0 -15.0
v -68.0 -10.0 -40.0
v -68.0 -13.0 -40.0
v 82.0 -8.0 -15.0
v 82.0 -12.0 -15.0
v 68.0 -10.0 -40.0
v 68.0 -13.0 -40.0
v -19.0 -4.0 -64.0
v 19.0 -4.0 -64.0
v 0.0 -18.0 -5.0
v 0.0 -15.0 -35.0

usemtl player_mat_1
f 1 2 3
f 1 4 2
usemtl player_mat_2
f 1 5 4
f 1 3 5
usemtl player_mat_3
f 2 7 6
f 6 7 9
f 7 8 9
f 8 13 9
usemtl player_mat_1
f 2 6 3
f 2 4 6
usemtl player_mat_2
f 3 10 5
f 4 5 11
f 5 12 11
f 5 10 12
usemtl player_mat_1
f 9 10 13
f 13 10 14
f 9 13 11
f 13 15 11
usemtl player_mat_2
f 10 14 12
f 14 16 12
f 11 12 15
f 15 12 16
usemtl player_mat_3
f 17 19 18
f 18 19 17
f 20 21 22
f 21 20 22
usemtl player_mat_1
f 23 29 27
f 23 10 27
usemtl player_mat_2
f 23 25 29
f 25 31 29
usemtl player_mat_1
f 24 28 30
f 24 11 28
usemtl player_mat_2
f 24 30 26
f 26 30 32
usemtl player_mat_3
f 27 29 33
f 29 35 33
usemtl player_mat_1
f 29 31 35
usemtl player_mat_3
f 28 34 30
f 30 34 36
usemtl player_mat_1
f 30 36 32
f 37 40 41
f 41 40 44
f 39 37 43
f 43 37 41
usemtl player_mat_2
f 38 39 42
f 42 39 43
f 40 38 44
f 44 38 42
usemtl player_mat_3
f 37 38 40
f 37 39 38
usemtl player_mat_1
f 45 49 48
f 49 52 48
f 47 51 45
f 51 49 45
usemtl player_mat_2
f 46 50 47
f 50 51 47
f 48 52 46
f 52 50 46
usemtl player_mat_3
f 45 48 46
f 45 46 47
f 53 55 57
usemtl player_mat_1
f 57 55 53
usemtl player_mat_3
f 54 58 56
usemtl player_mat_1
f 58 54 56
