mtllib sniper.mtl

v 0 0 150
v -8 0 40
v 8 0 40
v 0 8 40
v 0 -8 40
v -18 12 0
v 18 12 0
v -18 -12 0
v 18 -12 0
v -22 16 -60
v 22 16 -60
v -22 -16 -60
v 22 -16 -60
v -10 8 -90
v 10 8 -90
v -10 -8 -90
v 10 -8 -90

usemtl sniper_mat_1
f 1 3 4
f 1 5 3
f 1 4 2
f 1 2 5
usemtl sniper_mat_2
f 4 7 6
f 4 6 2
f 2 6 8
f 2 8 5
f 5 8 9
f 5 9 3
f 3 9 7
f 3 7 4
usemtl sniper_mat_3
f 6 11 10
f 6 7 11
f 6 10 12
f 6 12 8
f 7 13 11
f 7 9 13
f 8 12 13
f 8 13 9
f 10 15 14
f 10 11 15
f 10 14 16
f 10 16 12
f 11 17 15
f 11 13 17
f 12 16 17
f 12 17 13
usemtl sniper_mat_2
f 14 17 16
f 14 15 17
