# Exported from Wings 3D 2.3
mtllib station1.mtl

#114 vertices, 128 faces
v 38.26834324 87.33578364 0.0000000e+0
v 35.35533906 87.33578364 14.64466094
v 27.05980501 87.33578364 27.05980501
v 14.64466094 87.33578364 35.35533906
v 2.3432602e-15 87.33578364 38.26834324
v -14.64466094 87.33578364 35.35533906
v -27.05980501 87.33578364 27.05980501
v -35.35533906 87.33578364 14.64466094
v -38.26834324 87.33578364 4.6865204e-15
v -35.35533906 87.33578364 -14.64466094
v -27.05980501 87.33578364 -27.05980501
v -14.64466094 87.33578364 -35.35533906
v -7.0297806e-15 87.33578364 -38.26834324
v 14.64466094 87.33578364 -35.35533906
v 27.05980501 87.33578364 -27.05980501
v 35.35533906 87.33578364 -14.64466094
v 70.71067812 79.74873734 0.0000000e+0
v 65.32814824 79.74873734 27.05980501
v 50.00000000 79.74873734 50.00000000
v 27.05980501 79.74873734 65.32814824
v 4.3297803e-15 79.74873734 70.71067812
v -27.05980501 79.74873734 65.32814824
v -50.00000000 79.74873734 50.00000000
v -65.32814824 79.74873734 27.05980501
v -70.71067812 79.74873734 8.6595606e-15
v -65.32814824 79.74873734 -27.05980501
v -50.00000000 79.74873734 -50.00000000
v -27.05980501 79.74873734 -65.32814824
v -1.2989341e-14 79.74873734 -70.71067812
v 27.05980501 79.74873734 -65.32814824
v 50.00000000 79.74873734 -50.00000000
v 65.32814824 79.74873734 -27.05980501
v 92.38795325 68.39392013 0.0000000e+0
v 85.35533906 68.39392013 35.35533906
v 65.32814824 68.39392013 65.32814824
v 35.35533906 68.39392013 85.35533906
v 5.6571306e-15 68.39392013 92.38795325
v -35.35533906 68.39392013 85.35533906
v -65.32814824 68.39392013 65.32814824
v -85.35533906 68.39392013 35.35533906
v -92.38795325 68.39392013 1.1314261e-14
v -85.35533906 68.39392013 -35.35533906
v -65.32814824 68.39392013 -65.32814824
v -35.35533906 68.39392013 -85.35533906
v -1.6971392e-14 68.39392013 -92.38795325
v 35.35533906 68.39392013 -85.35533906
v 65.32814824 68.39392013 -65.32814824
v 85.35533906 68.39392013 -35.35533906
v 100.00000000 55.00000000 0.0000000e+0
v 92.38795325 55.00000000 38.26834324
v 70.71067812 55.00000000 70.71067812
v 38.26834324 55.00000000 92.38795325
v 6.1232340e-15 55.00000000 100.00000000
v -38.26834324 55.00000000 92.38795325
v -70.71067812 55.00000000 70.71067812
v -92.38795325 55.00000000 38.26834324
v -100.00000000 55.00000000 1.2246468e-14
v -92.38795325 55.00000000 -38.26834324
v -70.71067812 55.00000000 -70.71067812
v -38.26834324 55.00000000 -92.38795325
v -1.8369702e-14 55.00000000 -100.00000000
v 38.26834324 55.00000000 -92.38795325
v 70.71067812 55.00000000 -70.71067812
v 92.38795325 55.00000000 -38.26834324
v 92.38795325 41.60607987 0.0000000e+0
v 85.35533906 41.60607987 35.35533906
v 65.32814824 41.60607987 65.32814824
v 35.35533906 41.60607987 85.35533906
v 5.6571306e-15 41.60607987 92.38795325
v -35.35533906 41.60607987 85.35533906
v -65.32814824 41.60607987 65.32814824
v -85.35533906 41.60607987 35.35533906
v -92.38795325 41.60607987 1.1314261e-14
v -85.35533906 41.60607987 -35.35533906
v -65.32814824 41.60607987 -65.32814824
v -35.35533906 41.60607987 -85.35533906
v -1.6971392e-14 41.60607987 -92.38795325
v 35.35533906 41.60607987 -85.35533906
v 65.32814824 41.60607987 -65.32814824
v 85.35533906 41.60607987 -35.35533906
v 70.71067812 30.25126266 0.0000000e+0
v 65.32814824 30.25126266 27.05980501
v 50.00000000 30.25126266 50.00000000
v 27.05980501 30.25126266 65.32814824
v 4.3297803e-15 30.25126266 70.71067812
v -27.05980501 30.25126266 65.32814824
v -50.00000000 30.25126266 50.00000000
v -65.32814824 30.25126266 27.05980501
v -70.71067812 30.25126266 8.6595606e-15
v -65.32814824 30.25126266 -27.05980501
v -50.00000000 30.25126266 -50.00000000
v -27.05980501 30.25126266 -65.32814824
v -1.2989341e-14 30.25126266 -70.71067812
v 27.05980501 30.25126266 -65.32814824
v 50.00000000 30.25126266 -50.00000000
v 65.32814824 30.25126266 -27.05980501
v 38.26834324 22.66421636 0.0000000e+0
v 35.35533906 22.66421636 14.64466094
v 27.05980501 22.66421636 27.05980501
v 14.64466094 22.66421636 35.35533906
v 2.3432602e-15 22.66421636 38.26834324
v -14.64466094 22.66421636 35.35533906
v -27.05980501 22.66421636 27.05980501
v -35.35533906 22.66421636 14.64466094
v -38.26834324 22.66421636 4.6865204e-15
v -35.35533906 22.66421636 -14.64466094
v -27.05980501 22.66421636 -27.05980501
v -14.64466094 22.66421636 -35.35533906
v -7.0297806e-15 22.66421636 -38.26834324
v 14.64466094 22.66421636 -35.35533906
v 27.05980501 22.66421636 -27.05980501
v 35.35533906 22.66421636 -14.64466094
v 0.0000000e+0 90.00000000 0.0000000e+0
v 0.0000000e+0 20.00000000 0.0000000e+0
vn 0.14902595 0.98883329 -1.3930241e-16
vn 0.13768203 0.98883329 5.7029762e-2
vn 0.10537726 0.98883329 0.10537726
vn 5.7029762e-2 0.98883329 0.13768203
vn 3.4825602e-18 0.98883329 0.14902595
vn -5.7029762e-2 0.98883329 0.13768203
vn -0.10537726 0.98883329 0.10537726
vn -0.13768203 0.98883329 5.7029762e-2
vn -0.14902595 0.98883329 -1.7412801e-18
vn -0.13768203 0.98883329 -5.7029762e-2
vn -0.10537726 0.98883329 -0.10537726
vn -5.7029762e-2 0.98883329 -0.13768203
vn -1.2188961e-17 0.98883329 -0.14902595
vn 5.7029762e-2 0.98883329 -0.13768203
vn 0.10537726 0.98883329 -0.10537726
vn 0.13768203 0.98883329 -5.7029762e-2
vn 0.34845298 0.93732626 -3.5065605e-17
vn 0.32192858 0.93732626 0.13334718
vn 0.24639347 0.93732626 0.24639347
vn 0.13334718 0.93732626 0.32192858
vn 7.0131209e-18 0.93732626 0.34845298
vn -0.13334718 0.93732626 0.32192858
vn -0.24639347 0.93732626 0.24639347
vn -0.32192858 0.93732626 0.13334718
vn -0.34845298 0.93732626 2.8052484e-17
vn -0.32192858 0.93732626 -0.13334718
vn -0.24639347 0.93732626 -0.24639347
vn -0.13334718 0.93732626 -0.32192858
vn -1.0519681e-17 0.93732626 -0.34845298
vn 0.13334718 0.93732626 -0.32192858
vn 0.24639347 0.93732626 -0.24639347
vn 0.32192858 0.93732626 -0.13334718
vn 0.69377267 0.72019406 -7.3009672e-17
vn 0.64096237 0.72019406 0.26549531
vn 0.49057136 0.72019406 0.49057136
vn 0.26549531 0.72019406 0.64096237
vn 0.0000000e+0 0.72019406 0.69377267
vn -0.26549531 0.72019406 0.64096237
vn -0.49057136 0.72019406 0.49057136
vn -0.64096237 0.72019406 0.26549531
vn -0.69377267 0.72019406 6.5708705e-17
vn -0.64096237 0.72019406 -0.26549531
vn -0.49057136 0.72019406 -0.49057136
vn -0.26549531 0.72019406 -0.64096237
vn -5.8407738e-17 0.72019406 -0.69377267
vn 0.26549531 0.72019406 -0.64096237
vn 0.49057136 0.72019406 -0.49057136
vn 0.64096237 0.72019406 -0.26549531
vn 1.00000000 -1.1339536e-16 -1.2959470e-16
vn 0.92387953 -9.7196025e-17 0.38268343
vn 0.70710678 -9.7196025e-17 0.70710678
vn 0.38268343 -9.7196025e-17 0.92387953
vn 1.6199338e-17 -6.4797350e-17 1.00000000
vn -0.38268343 -6.4797350e-17 0.92387953
vn -0.70710678 -9.7196025e-17 0.70710678
vn -0.92387953 -9.7196025e-17 0.38268343
vn -1.00000000 -1.1339536e-16 9.7196025e-17
vn -0.92387953 -1.6199338e-16 -0.38268343
vn -0.70710678 -1.4579404e-16 -0.70710678
vn -0.38268343 -8.0996688e-17 -0.92387953
vn -9.7196025e-17 -8.0996688e-17 -1.00000000
vn 0.38268343 -1.2959470e-16 -0.92387953
vn 0.70710678 -9.7196025e-17 -0.70710678
vn 0.92387953 -1.1339536e-16 -0.38268343
vn 0.69377267 -0.72019406 -7.3009672e-17
vn 0.64096237 -0.72019406 0.26549531
vn 0.49057136 -0.72019406 0.49057136
vn 0.26549531 -0.72019406 0.64096237
vn 1.8252418e-17 -0.72019406 0.69377267
vn -0.26549531 -0.72019406 0.64096237
vn -0.49057136 -0.72019406 0.49057136
vn -0.64096237 -0.72019406 0.26549531
vn -0.69377267 -0.72019406 8.7611607e-17
vn -0.64096237 -0.72019406 -0.26549531
vn -0.49057136 -0.72019406 -0.49057136
vn -0.26549531 -0.72019406 -0.64096237
vn -4.0155320e-17 -0.72019406 -0.69377267
vn 0.26549531 -0.72019406 -0.64096237
vn 0.49057136 -0.72019406 -0.49057136
vn 0.64096237 -0.72019406 -0.26549531
vn 0.34845298 -0.93732626 -2.8052484e-17
vn 0.32192858 -0.93732626 0.13334718
vn 0.24639347 -0.93732626 0.24639347
vn 0.13334718 -0.93732626 0.32192858
vn 3.5065605e-18 -0.93732626 0.34845298
vn -0.13334718 -0.93732626 0.32192858
vn -0.24639347 -0.93732626 0.24639347
vn -0.32192858 -0.93732626 0.13334718
vn -0.34845298 -0.93732626 4.3832006e-17
vn -0.32192858 -0.93732626 -0.13334718
vn -0.24639347 -0.93732626 -0.24639347
vn -0.13334718 -0.93732626 -0.32192858
vn -1.2272962e-17 -0.93732626 -0.34845298
vn 0.13334718 -0.93732626 -0.32192858
vn 0.24639347 -0.93732626 -0.24639347
vn 0.32192858 -0.93732626 -0.13334718
vn 0.14902595 -0.98883329 4.1790722e-17
vn 0.13768203 -0.98883329 5.7029762e-2
vn 0.10537726 -0.98883329 0.10537726
vn 5.7029762e-2 -0.98883329 0.13768203
vn 0.0000000e+0 -0.98883329 0.14902595
vn -5.7029762e-2 -0.98883329 0.13768203
vn -0.10537726 -0.98883329 0.10537726
vn -0.13768203 -0.98883329 5.7029762e-2
vn -0.14902595 -0.98883329 4.5273283e-17
vn -0.13768203 -0.98883329 -5.7029762e-2
vn -0.10537726 -0.98883329 -0.10537726
vn -5.7029762e-2 -0.98883329 -0.13768203
vn -2.0895361e-17 -0.98883329 -0.14902595
vn 5.7029762e-2 -0.98883329 -0.13768203
vn 0.10537726 -0.98883329 -0.10537726
vn 0.13768203 -0.98883329 -5.7029762e-2
vn -8.6954415e-19 1.00000000 -8.9128275e-18
vn -6.0868090e-18 -1.00000000 -1.1738846e-17
g sphere2_default
usemtl default
s 1
f 1//1 17//17 32//32 16//16
f 1//1 113//113 2//2
f 2//2 18//18 17//17 1//1
f 2//2 113//113 3//3
f 3//3 19//19 18//18 2//2
f 3//3 113//113 4//4
f 4//4 20//20 19//19 3//3
f 4//4 113//113 5//5
f 5//5 21//21 20//20 4//4
f 5//5 113//113 6//6
f 6//6 22//22 21//21 5//5
f 6//6 113//113 7//7
f 7//7 23//23 22//22 6//6
f 7//7 113//113 8//8
f 8//8 24//24 23//23 7//7
f 8//8 113//113 9//9
f 9//9 25//25 24//24 8//8
f 9//9 113//113 10//10
f 10//10 26//26 25//25 9//9
f 10//10 113//113 11//11
f 11//11 27//27 26//26 10//10
f 11//11 113//113 12//12
f 12//12 28//28 27//27 11//11
f 12//12 113//113 13//13
f 13//13 29//29 28//28 12//12
f 13//13 113//113 14//14
f 14//14 30//30 29//29 13//13
f 14//14 113//113 15//15
f 15//15 31//31 30//30 14//14
f 15//15 113//113 16//16
f 16//16 32//32 31//31 15//15
f 16//16 113//113 1//1
f 17//17 33//33 48//48 32//32
f 18//18 34//34 33//33 17//17
f 19//19 35//35 34//34 18//18
f 20//20 36//36 35//35 19//19
f 21//21 37//37 36//36 20//20
f 22//22 38//38 37//37 21//21
f 23//23 39//39 38//38 22//22
f 24//24 40//40 39//39 23//23
f 25//25 41//41 40//40 24//24
f 26//26 42//42 41//41 25//25
f 27//27 43//43 42//42 26//26
f 28//28 44//44 43//43 27//27
f 29//29 45//45 44//44 28//28
f 30//30 46//46 45//45 29//29
f 31//31 47//47 46//46 30//30
f 32//32 48//48 47//47 31//31
f 33//33 49//49 64//64 48//48
f 34//34 50//50 49//49 33//33
f 35//35 51//51 50//50 34//34
f 36//36 52//52 51//51 35//35
f 37//37 53//53 52//52 36//36
f 38//38 54//54 53//53 37//37
f 39//39 55//55 54//54 38//38
f 40//40 56//56 55//55 39//39
f 41//41 57//57 56//56 40//40
f 42//42 58//58 57//57 41//41
f 43//43 59//59 58//58 42//42
f 44//44 60//60 59//59 43//43
f 45//45 61//61 60//60 44//44
f 46//46 62//62 61//61 45//45
f 47//47 63//63 62//62 46//46
f 48//48 64//64 63//63 47//47
f 49//49 65//65 80//80 64//64
f 50//50 66//66 65//65 49//49
f 51//51 67//67 66//66 50//50
f 52//52 68//68 67//67 51//51
f 53//53 69//69 68//68 52//52
f 54//54 70//70 69//69 53//53
f 55//55 71//71 70//70 54//54
f 56//56 72//72 71//71 55//55
f 57//57 73//73 72//72 56//56
f 58//58 74//74 73//73 57//57
f 59//59 75//75 74//74 58//58
f 60//60 76//76 75//75 59//59
f 61//61 77//77 76//76 60//60
f 62//62 78//78 77//77 61//61
f 63//63 79//79 78//78 62//62
f 64//64 80//80 79//79 63//63
f 65//65 81//81 96//96 80//80
f 66//66 82//82 81//81 65//65
f 67//67 83//83 82//82 66//66
f 68//68 84//84 83//83 67//67
f 69//69 85//85 84//84 68//68
f 70//70 86//86 85//85 69//69
f 71//71 87//87 86//86 70//70
f 72//72 88//88 87//87 71//71
f 73//73 89//89 88//88 72//72
f 74//74 90//90 89//89 73//73
f 75//75 91//91 90//90 74//74
f 76//76 92//92 91//91 75//75
f 77//77 93//93 92//92 76//76
f 78//78 94//94 93//93 77//77
f 79//79 95//95 94//94 78//78
f 80//80 96//96 95//95 79//79
f 81//81 97//97 112//112 96//96
f 82//82 98//98 97//97 81//81
f 83//83 99//99 98//98 82//82
f 84//84 100//100 99//99 83//83
f 85//85 101//101 100//100 84//84
f 86//86 102//102 101//101 85//85
f 87//87 103//103 102//102 86//86
f 88//88 104//104 103//103 87//87
f 89//89 105//105 104//104 88//88
f 90//90 106//106 105//105 89//89
f 91//91 107//107 106//106 90//90
f 92//92 108//108 107//107 91//91
f 93//93 109//109 108//108 92//92
f 94//94 110//110 109//109 93//93
f 95//95 111//111 110//110 94//94
f 96//96 112//112 111//111 95//95
f 97//97 114//114 112//112
f 98//98 114//114 97//97
f 99//99 114//114 98//98
f 100//100 114//114 99//99
f 101//101 114//114 100//100
f 102//102 114//114 101//101
f 103//103 114//114 102//102
f 104//104 114//114 103//103
f 105//105 114//114 104//104
f 106//106 114//114 105//105
f 107//107 114//114 106//106
f 108//108 114//114 107//107
f 109//109 114//114 108//108
f 110//110 114//114 109//109
f 111//111 114//114 110//110
f 112//112 114//114 111//111
o Cube1
#502 vertices, 461 faces
v -1.00000000 0.0000000e+0 0.0000000e+0
v -1.00000000 0.0000000e+0 2.00000000
v -1.00000000 2.00000000 0.0000000e+0
v -1.00000000 2.00000000 2.00000000
v 1.00000000 0.0000000e+0 0.0000000e+0
v 1.00000000 0.0000000e+0 2.00000000
v 1.00000000 2.00000000 0.0000000e+0
v 1.00000000 2.00000000 2.00000000
v 3.00000000 0.0000000e+0 2.00000000
v 3.00000000 0.0000000e+0 0.0000000e+0
v 3.00000000 2.00000000 0.0000000e+0
v 3.00000000 2.00000000 2.00000000
v -3.00000000 0.0000000e+0 0.0000000e+0
v -3.00000000 0.0000000e+0 2.00000000
v -3.00000000 2.00000000 2.00000000
v -3.00000000 2.00000000 0.0000000e+0
v 3.00000000 2.00000000 -4.00000000
v 3.00000000 0.0000000e+0 -4.00000000
v 1.00000000 0.0000000e+0 -4.00000000
v 1.00000000 2.00000000 -4.00000000
v 3.00000000 0.0000000e+0 6.00000000
v 3.00000000 2.00000000 6.00000000
v 1.00000000 2.00000000 6.00000000
v 1.00000000 0.0000000e+0 6.00000000
v -3.00000000 2.00000000 6.00000000
v -3.00000000 0.0000000e+0 6.00000000
v -1.00000000 0.0000000e+0 6.00000000
v -1.00000000 2.00000000 6.00000000
v -3.00000000 0.0000000e+0 -4.00000000
v -3.00000000 2.00000000 -4.00000000
v -1.00000000 2.00000000 -4.00000000
v -1.00000000 0.0000000e+0 -4.00000000
v -0.89253620 0.0000000e+0 1.89253620
v -0.89253620 0.0000000e+0 0.10746380
v 0.89253620 0.0000000e+0 0.10746380
v 0.89253620 0.0000000e+0 1.89253620
v -0.92335065 1.92335065 2.00000000
v -0.92335065 7.6649349e-2 2.00000000
v 0.92335065 7.6649349e-2 2.00000000
v 0.92335065 1.92335065 2.00000000
v -0.88978424 0.11021576 0.0000000e+0
v -0.88978424 1.88978424 0.0000000e+0
v 0.88978424 1.88978424 0.0000000e+0
v 0.88978424 0.11021576 0.0000000e+0
v 3.00000000 0.10912674 1.89087326
v 3.00000000 0.10912674 0.10912674
v 3.00000000 1.89087326 0.10912674
v 3.00000000 1.89087326 1.89087326
v 1.07158914 0.0000000e+0 1.92841086
v 1.07158914 0.0000000e+0 7.1589145e-2
v 2.92841086 0.0000000e+0 7.1589145e-2
v 2.92841086 0.0000000e+0 1.92841086
v 2.90475246 1.90475246 -4.00000000
v 2.90475246 9.5247540e-2 -4.00000000
v 1.09524754 9.5247540e-2 -4.00000000
v 1.09524754 1.90475246 -4.00000000
v 1.10361045 2.00000000 0.10361045
v 1.10361045 2.00000000 1.89638955
v 2.89638955 2.00000000 1.89638955
v 2.89638955 2.00000000 0.10361045
v 2.93316118 6.6838818e-2 6.00000000
v 2.93316118 1.93316118 6.00000000
v 1.06683882 1.93316118 6.00000000
v 1.06683882 6.6838818e-2 6.00000000
v -1.08738353 0.0000000e+0 8.7383528e-2
v -1.08738353 0.0000000e+0 1.91261647
v -2.91261647 0.0000000e+0 1.91261647
v -2.91261647 0.0000000e+0 8.7383528e-2
v -2.89090832 1.89090832 6.00000000
v -2.89090832 0.10909168 6.00000000
v -1.10909168 0.10909168 6.00000000
v -1.10909168 1.89090832 6.00000000
v -2.89760279 0.10239721 -4.00000000
v -2.89760279 1.89760279 -4.00000000
v -1.10239721 1.89760279 -4.00000000
v -1.10239721 0.10239721 -4.00000000
v 3.00000000 1.87077931 -0.12922069
v 3.00000000 0.12922069 -0.12922069
v 3.00000000 0.12922069 -3.87077931
v 3.00000000 1.87077931 -3.87077931
v 2.88763896 0.0000000e+0 -0.11236104
v 1.11236104 0.0000000e+0 -0.11236104
v 1.11236104 0.0000000e+0 -3.88763896
v 2.88763896 0.0000000e+0 -3.88763896
v 1.10203624 2.00000000 -0.10203624
v 2.89796376 2.00000000 -0.10203624
v 2.89796376 2.00000000 -3.89796376
v 1.10203624 2.00000000 -3.89796376
v 2.91888323 2.00000000 2.08111677
v 1.08111677 2.00000000 2.08111677
v 1.08111677 2.00000000 5.91888323
v 2.91888323 2.00000000 5.91888323
v 1.00000000 1.90157173 2.09842827
v 1.00000000 9.8428270e-2 2.09842827
v 1.00000000 9.8428270e-2 5.90157173
v 1.00000000 1.90157173 5.90157173
v 1.07868954 0.0000000e+0 2.07868954
v 2.92131046 0.0000000e+0 2.07868954
v 2.92131046 0.0000000e+0 5.92131046
v 1.07868954 0.0000000e+0 5.92131046
v -2.90072482 0.0000000e+0 2.09927518
v -1.09927518 0.0000000e+0 2.09927518
v -1.09927518 0.0000000e+0 5.90072482
v -2.90072482 0.0000000e+0 5.90072482
v -1.07767775 2.00000000 2.07767775
v -2.92232225 2.00000000 2.07767775
v -2.92232225 2.00000000 5.92232225
v -1.07767775 2.00000000 5.92232225
v -3.00000000 8.8837823e-2 -8.8837823e-2
v -3.00000000 1.91116218 -8.8837823e-2
v -3.00000000 1.91116218 -3.91116218
v -3.00000000 8.8837823e-2 -3.91116218
v -1.00000000 1.87789675 -0.12210325
v -1.00000000 0.12210325 -0.12210325
v -1.00000000 0.12210325 -3.87789675
v -1.00000000 1.87789675 -3.87789675
v -1.08847973 0.0000000e+0 -8.8479728e-2
v -2.91152027 0.0000000e+0 -8.8479728e-2
v -2.91152027 0.0000000e+0 -3.91152027
v -1.08847973 0.0000000e+0 -3.91152027
v -0.89253620 -9.9965159e-2 1.89253620
v -0.89253620 -9.9965159e-2 0.10746380
v 0.89253620 -9.9965159e-2 0.10746380
v 0.89253620 -9.9965159e-2 1.89253620
v -0.92335065 1.92335065 2.09719241
v -0.92335065 7.6649349e-2 2.09719241
v 0.92335065 7.6649349e-2 2.09719241
v 0.92335065 1.92335065 2.09719241
v -0.88978424 0.11021576 -0.11000000
v -0.88978424 1.88978424 -0.11000000
v 0.88978424 1.88978424 -0.11000000
v 0.88978424 0.11021576 -0.11000000
v 3.10252095 0.10912674 1.89087326
v 3.10252095 0.10912674 0.10912674
v 3.10252095 1.89087326 0.10912674
v 3.10252095 1.89087326 1.89087326
v 1.07158914 -9.9815423e-2 1.92841086
v 1.07158914 -9.9815423e-2 7.1589145e-2
v 2.92841086 -9.9815423e-2 7.1589145e-2
v 2.92841086 -9.9815423e-2 1.92841086
v 2.90475246 1.90475246 -4.09972141
v 2.90475246 9.5247540e-2 -4.09972141
v 1.09524754 9.5247540e-2 -4.09972141
v 1.09524754 1.90475246 -4.09972141
v 1.10361045 2.11000000 0.10361045
v 1.10361045 2.11000000 1.89638955
v 2.89638955 2.11000000 1.89638955
v 2.89638955 2.11000000 0.10361045
v 2.93316118 6.6838818e-2 6.11000000
v 2.93316118 1.93316118 6.11000000
v 1.06683882 1.93316118 6.11000000
v 1.06683882 6.6838818e-2 6.11000000
v -1.08738353 -9.0000000e-2 8.7383528e-2
v -1.08738353 -9.0000000e-2 1.91261647
v -2.91261647 -9.0000000e-2 1.91261647
v -2.91261647 -9.0000000e-2 8.7383528e-2
v -2.89090832 1.89090832 6.10569877
v -2.89090832 0.10909168 6.10569877
v -1.10909168 0.10909168 6.10569877
v -1.10909168 1.89090832 6.10569877
v -2.89760279 0.10239721 -4.10369091
v -2.89760279 1.89760279 -4.10369091
v -1.10239721 1.89760279 -4.10369091
v -1.10239721 0.10239721 -4.10369091
v 3.09000000 1.87077931 -0.12922069
v 3.09000000 0.12922069 -0.12922069
v 3.09000000 0.12922069 -3.87077931
v 3.09000000 1.87077931 -3.87077931
v 2.88763896 -9.0107131e-2 -0.11236104
v 1.11236104 -9.0107131e-2 -0.11236104
v 1.11236104 -9.0107131e-2 -3.88763896
v 2.88763896 -9.0107131e-2 -3.88763896
v 1.10203624 2.10736282 -0.10203624
v 2.89796376 2.10736282 -0.10203624
v 2.89796376 2.10736282 -3.89796376
v 1.10203624 2.10736282 -3.89796376
v 2.91888323 2.11000000 2.08111677
v 1.08111677 2.11000000 2.08111677
v 1.08111677 2.11000000 5.91888323
v 2.91888323 2.11000000 5.91888323
v 0.89000000 1.90157173 2.09842827
v 0.89000000 9.8428270e-2 2.09842827
v 0.89000000 9.8428270e-2 5.90157173
v 0.89000000 1.90157173 5.90157173
v 1.07868954 -0.11000000 2.07868954
v 2.92131046 -0.11000000 2.07868954
v 2.92131046 -0.11000000 5.92131046
v 1.07868954 -0.11000000 5.92131046
v -2.90072482 -9.9895905e-2 2.09927518
v -1.09927518 -9.9895905e-2 2.09927518
v -1.09927518 -9.9895905e-2 5.90072482
v -2.90072482 -9.9895905e-2 5.90072482
v -1.07767775 2.09000000 2.07767775
v -2.92232225 2.09000000 2.07767775
v -2.92232225 2.09000000 5.92232225
v -1.07767775 2.09000000 5.92232225
v -3.09000000 8.8837823e-2 -8.8837823e-2
v -3.09000000 1.91116218 -8.8837823e-2
v -3.09000000 1.91116218 -3.91116218
v -3.09000000 8.8837823e-2 -3.91116218
v -0.90398799 1.87789675 -0.12210325
v -0.90398799 0.12210325 -0.12210325
v -0.90398799 0.12210325 -3.87789675
v -0.90398799 1.87789675 -3.87789675
v -1.08847973 -0.10757605 -8.8479728e-2
v -2.91152027 -0.10757605 -8.8479728e-2
v -2.91152027 -0.10757605 -3.91152027
v -1.08847973 -0.10757605 -3.91152027
v -0.26104818 -9.9965159e-2 0.10746380
v -0.26104818 -9.9965159e-2 1.89253620
v 0.24705130 7.6649349e-2 2.09719241
v 0.24705130 1.92335065 2.09719241
v 0.88978424 1.32599462 -0.11000000
v -0.88978424 1.32599462 -0.11000000
v 3.10252095 0.91650690 0.10912674
v 3.10252095 0.91650690 1.89087326
v 2.92841086 -9.9815423e-2 1.36135782
v 1.07158914 -9.9815423e-2 1.36135782
v 2.19974622 2.11000000 1.89638955
v 2.19974622 2.11000000 0.10361045
v 2.01187085 1.93316118 6.11000000
v 2.01187085 6.6838818e-2 6.11000000
v -1.10239721 0.89170252 -4.10369091
v -2.89760279 0.89170252 -4.10369091
v 3.09000000 0.12922069 -1.85218600
v 3.09000000 1.87077931 -1.85218600
v 1.11236104 -9.0107131e-2 -2.40912455
v 2.88763896 -9.0107131e-2 -2.40912455
v 2.89796376 2.10736282 -2.88361303
v 1.10203624 2.10736282 -2.88361303
v 1.08111677 2.11000000 3.77840163
v 2.91888323 2.11000000 3.77840163
v 0.89000000 9.8428270e-2 3.96763539
v 0.89000000 1.90157173 3.96763539
v 2.92131046 -0.11000000 4.36091403
v 1.07868954 -0.11000000 4.36091403
v -1.09927518 -9.9895905e-2 4.07496096
v -2.90072482 -9.9895905e-2 4.07496096
v -2.92232225 2.09000000 4.05014636
v -1.07767775 2.09000000 4.05014636
v -3.09000000 1.91116218 -1.49139690
v -3.09000000 8.8837823e-2 -1.49139690
v -0.90398799 0.12210325 -2.25090852
v -0.90398799 1.87789675 -2.25090852
v -2.91152027 -0.10757605 -1.57741682
v -1.08847973 -0.10757605 -1.57741682
v -0.21249874 -0.20343128 1.84398676
v -0.21249874 -0.20343128 0.15601324
v 0.84398676 -0.20343128 0.15601324
v 0.84398676 -0.20343128 1.84398676
v 0.29836151 1.87204044 2.19201794
v 0.29836151 0.12795956 2.19201794
v 0.87204044 0.12795956 2.19201794
v 0.87204044 1.87204044 2.19201794
v 3.19610327 0.98701420 1.82036596
v 3.19610327 0.98701420 0.17963404
v 3.19610327 1.82036596 0.17963404
v 3.19610327 1.82036596 1.82036596
v 1.09494656 -0.19983148 1.38471523
v 2.90505344 -0.19983148 1.38471523
v 2.90505344 -0.19983148 1.90505344
v 1.09494656 -0.19983148 1.90505344
v 2.22743237 2.20366331 0.13129660
v 2.22743237 2.20366331 1.86870340
v 2.86870340 2.20366331 1.86870340
v 2.86870340 2.20366331 0.13129660
v 1.95562292 0.12308675 6.20000000
v 1.95562292 1.87691325 6.20000000
v 1.12308675 1.87691325 6.20000000
v 1.12308675 0.12308675 6.20000000
v 3.20000000 1.79054029 -1.93242503
v 3.20000000 0.20945971 -1.93242503
v 3.20000000 0.20945971 -3.79054029
v 3.20000000 1.79054029 -3.79054029
v 2.79247544 -0.20010713 -2.50428807
v 1.20752456 -0.20010713 -2.50428807
v 1.20752456 -0.20010713 -3.79247544
v 2.79247544 -0.20010713 -3.79247544
v 1.15824128 2.19736282 -2.93981808
v 2.84175872 2.19736282 -2.93981808
v 2.84175872 2.19736282 -3.84175872
v 1.15824128 2.19736282 -3.84175872
v 2.86094155 2.21761704 3.83634331
v 1.13905845 2.21761704 3.83634331
v 1.13905845 2.21761704 5.86094155
v 2.86094155 2.21761704 5.86094155
v 0.79578324 1.81327296 4.05593415
v 0.79578324 0.18672704 4.05593415
v 0.79578324 0.18672704 5.81327296
v 0.79578324 1.81327296 5.81327296
v -2.85184626 -0.19790488 4.12383952
v -1.14815374 -0.19790488 4.12383952
v -1.14815374 -0.19790488 5.85184626
v -2.85184626 -0.19790488 5.85184626
v -1.18572723 2.18665769 4.15819584
v -2.81427277 2.18665769 4.15819584
v -2.81427277 2.18665769 5.81427277
v -1.18572723 2.18665769 5.81427277
v -1.18161594 -0.20048666 -1.67055303
v -2.81838406 -0.20048666 -1.67055303
v -2.81838406 -0.20048666 -3.81838406
v -1.18161594 -0.20048666 -3.81838406
v -0.29523884 -0.20146974 0.14165445
v -0.29523884 -0.20146974 1.85834555
v -0.85834555 -0.20146974 1.85834555
v -0.85834555 -0.20146974 0.14165445
v 0.85876775 1.35701111 -0.20000000
v -0.85876775 1.35701111 -0.20000000
v -0.85876775 1.85876775 -0.20000000
v 0.85876775 1.85876775 -0.20000000
v 3.19666387 0.87177173 0.15386192
v 3.19666387 0.87177173 1.84613808
v 3.19666387 0.15386192 1.84613808
v 3.19666387 0.15386192 0.15386192
v 2.13376731 2.21141550 1.83041063
v 2.13376731 2.21141550 0.16958937
v 1.16958937 2.21141550 0.16958937
v 1.16958937 2.21141550 1.83041063
v 2.04714720 1.89788483 6.22000000
v 2.04714720 0.10211517 6.22000000
v 2.89788483 0.10211517 6.22000000
v 2.89788483 1.89788483 6.22000000
v -1.15549626 0.94480157 -4.20642321
v -2.84450374 0.94480157 -4.20642321
v -2.84450374 1.84450374 -4.20642321
v -1.15549626 1.84450374 -4.20642321
v 3.20000000 0.21286535 -1.76854135
v 3.20000000 1.78713465 -1.76854135
v 3.20000000 1.78713465 -0.21286535
v 3.20000000 0.21286535 -0.21286535
v 1.16891117 -0.18010713 -2.35257442
v 2.83108883 -0.18010713 -2.35257442
v 2.83108883 -0.18010713 -0.16891117
v 1.16891117 -0.18010713 -0.16891117
v 1.15420270 2.20000000 3.70531570
v 2.84579730 2.20000000 3.70531570
v 2.84579730 2.20000000 2.15420270
v 1.15420270 2.20000000 2.15420270
v 0.78000000 0.20515499 3.86090867
v 0.78000000 1.79484501 3.86090867
v 0.78000000 1.79484501 2.20515499
v 0.78000000 0.20515499 2.20515499
v -1.16955122 -0.18989590 4.00468492
v -2.83044878 -0.18989590 4.00468492
v -2.83044878 -0.18989590 2.16955122
v -1.16955122 -0.18989590 2.16955122
v -2.82782899 2.19117717 3.95565310
v -1.17217101 2.19117717 3.95565310
v -1.17217101 2.19117717 2.17217101
v -2.82782899 2.19117717 2.17217101
v -3.18867267 1.84645852 -1.42669324
v -3.18867267 0.15354148 -1.42669324
v -3.18867267 0.15354148 -0.15354148
v -3.18867267 1.84645852 -0.15354148
v -0.79836850 0.21184766 -2.16116411
v -0.79836850 1.78815234 -2.16116411
v -0.79836850 1.78815234 -0.21184766
v -0.79836850 0.21184766 -0.21184766
v 0.84398676 -0.20343128 1.06605084
v -0.21249874 -0.20343128 1.06605084
v 0.87204044 1.07310890 2.19201794
v 0.29836151 1.07310890 2.19201794
v 3.19610327 1.82036596 0.78823435
v 3.19610327 0.98701420 0.78823435
v 2.86870340 2.20366331 0.99937222
v 2.22743237 2.20366331 0.99937222
v 1.12308675 1.11571954 6.20000000
v 1.95562292 1.11571954 6.20000000
v 3.20000000 0.20945971 -2.83948916
v 3.20000000 1.79054029 -2.83948916
v 2.12837728 -0.20010713 -3.79247544
v 2.12837728 -0.20010713 -2.50428807
v 1.94793034 2.19736282 -3.84175872
v 1.94793034 2.19736282 -2.93981808
v 1.13905845 2.21761704 4.79801077
v 2.86094155 2.21761704 4.79801077
v -2.81427277 2.18665769 5.06171015
v -1.18572723 2.18665769 5.06171015
v -2.81838406 -0.20048666 -2.86822431
v -1.18161594 -0.20048666 -2.86822431
v -0.85834555 -0.20146974 1.17962774
v -0.29523884 -0.20146974 1.17962774
v 9.6532914e-2 1.85876775 -0.20000000
v 9.6532914e-2 1.35701111 -0.20000000
v 3.19666387 0.15386192 1.07452509
v 3.19666387 0.87177173 1.07452509
v 1.16958937 2.21141550 0.96959837
v 2.13376731 2.21141550 0.96959837
v 2.89788483 0.87641242 6.22000000
v 2.04714720 0.87641242 6.22000000
v 3.20000000 1.78713465 -1.07465411
v 3.20000000 0.21286535 -1.07465411
v 2.83108883 -0.18010713 -1.20237311
v 1.16891117 -0.18010713 -1.20237311
v -3.18867267 0.98291201 -0.15354148
v -3.18867267 0.98291201 -1.42669324
v -0.79836850 1.78815234 -1.12249744
v -0.79836850 0.21184766 -1.12249744
v 2.25915762 2.30721966 0.96764696
v 2.83697815 2.30721966 0.96764696
v 2.83697815 2.30721966 0.16302185
v 2.25915762 2.30721966 0.16302185
v 2.16544566 -0.30851583 -2.54135645
v 2.16544566 -0.30851583 -3.75540706
v 2.75540706 -0.30851583 -3.75540706
v 2.75540706 -0.30851583 -2.54135645
v 1.90840163 2.30736282 -2.97934679
v 1.90840163 2.30736282 -3.80223001
v 1.19776999 2.30736282 -3.80223001
v 1.19776999 2.30736282 -2.97934679
v 2.80001657 2.32761704 4.85893575
v 1.19998343 2.32761704 4.85893575
v 1.19998343 2.32761704 5.80001657
v 2.80001657 2.32761704 5.80001657
v -1.22360396 2.29665769 5.09958688
v -2.77639604 2.29665769 5.09958688
v -2.77639604 2.29665769 5.77639604
v -1.22360396 2.29665769 5.77639604
v -0.32895057 -0.30605908 1.14591601
v -0.82463382 -0.30605908 1.14591601
v -0.82463382 -0.30605908 0.17536618
v -0.32895057 -0.30605908 0.17536618
v 2.10162141 2.31102094 1.00174428
v 1.20173527 2.31102094 1.00174428
v 1.20173527 2.31102094 1.79826473
v 2.10162141 2.31102094 1.79826473
v 3.29769633 0.24394720 -1.04357226
v 3.29769633 1.75605280 -1.04357226
v 3.29769633 1.75605280 -0.24394720
v 3.29769633 0.24394720 -0.24394720
v 1.22306585 -0.27010713 -1.14821843
v 2.77693415 -0.27010713 -1.14821843
v 2.77693415 -0.27010713 -0.22306585
v 1.22306585 -0.27010713 -0.22306585
v -3.29379411 1.01573921 -1.39386604
v -3.29379411 1.01573921 -0.18636868
v -3.29379411 1.81363132 -0.18636868
v -3.29379411 1.81363132 -1.39386604
v 0.84866868 1.04973714 2.29657296
v 0.32173327 1.04973714 2.29657296
v 0.32173327 0.15133132 2.29657296
v 0.84866868 0.15133132 2.29657296
v 3.30610327 1.78900914 0.75687754
v 3.30610327 1.01837101 0.75687754
v 3.30610327 1.01837101 0.21099086
v 3.30610327 1.78900914 0.21099086
v 2.82549731 2.29366331 1.04257831
v 2.27063846 2.29366331 1.04257831
v 2.27063846 2.29366331 1.82549731
v 2.82549731 2.29366331 1.82549731
v 1.16884732 1.16148011 6.31000000
v 1.90986235 1.16148011 6.31000000
v 1.90986235 1.83115268 6.31000000
v 1.16884732 1.83115268 6.31000000
v 1.99091021 2.28736282 -3.79877884
v 1.99091021 2.28736282 -2.98279795
v 2.79877884 2.28736282 -2.98279795
v 2.79877884 2.28736282 -3.79877884
v -2.77174234 2.27665769 5.01917972
v -1.22825766 2.27665769 5.01917972
v -1.22825766 2.27665769 4.20072627
v -2.77174234 2.27665769 4.20072627
v -2.76323650 -0.29316328 -2.81307676
v -1.23676350 -0.29316328 -2.81307676
v -1.23676350 -0.29316328 -1.72570059
v -2.76323650 -0.29316328 -1.72570059
v -0.82477274 -0.30280349 1.21320055
v -0.32881165 -0.30280349 1.21320055
v -0.32881165 -0.30280349 1.82477274
v -0.82477274 -0.30280349 1.82477274
v 8.0388761e-2 1.84262360 -0.31000000
v 8.0388761e-2 1.37315526 -0.31000000
v -0.84262360 1.37315526 -0.31000000
v -0.84262360 1.84262360 -0.31000000
v 3.30448642 0.17584975 1.09651292
v 3.30448642 0.84978390 1.09651292
v 3.30448642 0.84978390 1.82415025
v 3.30448642 0.17584975 1.82415025
v 1.21439925 2.32141550 0.92478849
v 2.08895743 2.32141550 0.92478849
v 2.08895743 2.32141550 0.21439925
v 1.21439925 2.32141550 0.21439925
v 2.86596480 0.84449238 6.32950038
v 2.07906723 0.84449238 6.32950038
v 2.07906723 0.13403520 6.32950038
v 2.86596480 0.13403520 6.32950038
v 3.31000000 1.76022148 -1.10156728
v 3.31000000 0.23977852 -1.10156728
v 3.31000000 0.23977852 -1.74162817
v 3.31000000 1.76022148 -1.74162817
v 2.76404728 -0.29010713 -1.26941466
v 1.23595272 -0.29010713 -1.26941466
v 1.23595272 -0.29010713 -2.28553287
v 2.76404728 -0.29010713 -2.28553287
v -0.70836850 1.74161919 -1.16903058
v -0.70836850 0.25838081 -1.16903058
v -0.70836850 0.25838081 -2.11463096
v -0.70836850 1.74161919 -2.11463096
v -1.00000000 52.00000000 0.0000000e+0
v -1.00000000 52.00000000 2.00000000
v 1.00000000 52.00000000 2.00000000
v 1.00000000 52.00000000 0.0000000e+0
vn 0.30151134 -0.90453403 -0.30151134
vn 0.15617376 -0.93704257 0.31234752
vn 0.26726124 0.53452248 -0.80178373
vn 0.0000000e+0 0.70710678 0.70710678
vn -0.15617376 -0.93704257 -0.31234752
vn -0.30151134 -0.90453403 0.30151134
vn 0.0000000e+0 0.80000000 -0.60000000
vn -0.19611614 0.78446454 0.58834841
vn 0.60000000 -0.80000000 0.0000000e+0
vn 0.70710678 -0.70710678 0.0000000e+0
vn 0.70710678 0.70710678 0.0000000e+0
vn 0.60000000 0.80000000 0.0000000e+0
vn -0.60000000 -0.80000000 0.0000000e+0
vn -0.44721360 -0.89442719 0.0000000e+0
vn -0.55470020 0.83205029 0.0000000e+0
vn -0.83205029 0.55470020 0.0000000e+0
vn 0.57735027 0.57735027 -0.57735027
vn 0.57735027 -0.57735027 -0.57735027
vn -0.33333333 -0.66666667 -0.66666667
vn -0.33333333 0.66666667 -0.66666667
vn 0.33333333 -0.66666667 0.66666667
vn 0.33333333 0.66666667 0.66666667
vn -0.57735027 0.57735027 0.57735027
vn -0.57735027 -0.57735027 0.57735027
vn -0.33333333 0.66666667 0.66666667
vn -0.33333333 -0.66666667 0.66666667
vn 0.33333333 -0.66666667 0.66666667
vn 0.33333333 0.66666667 0.66666667
vn -0.57735027 -0.57735027 -0.57735027
vn -0.66666667 0.33333333 -0.66666667
vn 0.66666667 0.33333333 -0.66666667
vn 0.57735027 -0.57735027 -0.57735027
vn -0.40824829 -0.81649658 0.40824829
vn -0.40824829 -0.81649658 -0.40824829
vn 0.40824829 -0.81649658 -0.40824829
vn 0.40824829 -0.81649658 0.40824829
vn -0.40824829 0.40824829 0.81649658
vn -0.40824829 -0.40824829 0.81649658
vn 0.40824829 -0.40824829 0.81649658
vn 0.40824829 0.40824829 0.81649658
vn -0.40824829 -0.40824829 -0.81649658
vn -0.40824829 0.40824829 -0.81649658
vn 0.40824829 0.40824829 -0.81649658
vn 0.40824829 -0.40824829 -0.81649658
vn 0.81649658 -0.40824829 0.40824829
vn 0.81649658 -0.40824829 -0.40824829
vn 0.81649658 0.40824829 -0.40824829
vn 0.81649658 0.40824829 0.40824829
vn -0.40824829 -0.81649658 0.40824829
vn -0.40824829 -0.81649658 -0.40824829
vn 0.40824829 -0.81649658 -0.40824829
vn 0.40824829 -0.81649658 0.40824829
vn 0.40824829 0.40824829 -0.81649658
vn 0.40824829 -0.40824829 -0.81649658
vn -0.40824829 -0.40824829 -0.81649658
vn -0.40824829 0.40824829 -0.81649658
vn -0.40824829 0.81649658 -0.40824829
vn -0.40824829 0.81649658 0.40824829
vn 0.40824829 0.81649658 0.40824829
vn 0.40824829 0.81649658 -0.40824829
vn 0.40824829 -0.40824829 0.81649658
vn 0.40824829 0.40824829 0.81649658
vn -0.40824829 0.40824829 0.81649658
vn -0.40824829 -0.40824829 0.81649658
vn 0.40824829 -0.81649658 -0.40824829
vn 0.40824829 -0.81649658 0.40824829
vn -0.40824829 -0.81649658 0.40824829
vn -0.40824829 -0.81649658 -0.40824829
vn -0.40824829 0.40824829 0.81649658
vn -0.40824829 -0.40824829 0.81649658
vn 0.40824829 -0.40824829 0.81649658
vn 0.40824829 0.40824829 0.81649658
vn -0.40824829 -0.40824829 -0.81649658
vn -0.40824829 0.40824829 -0.81649658
vn 0.40824829 0.40824829 -0.81649658
vn 0.40824829 -0.40824829 -0.81649658
vn 0.81649658 0.40824829 0.40824829
vn 0.81649658 -0.40824829 0.40824829
vn 0.81649658 -0.40824829 -0.40824829
vn 0.81649658 0.40824829 -0.40824829
vn 0.40824829 -0.81649658 0.40824829
vn -0.40824829 -0.81649658 0.40824829
vn -0.40824829 -0.81649658 -0.40824829
vn 0.40824829 -0.81649658 -0.40824829
vn -0.40824829 0.81649658 0.40824829
vn 0.40824829 0.81649658 0.40824829
vn 0.40824829 0.81649658 -0.40824829
vn -0.40824829 0.81649658 -0.40824829
vn 0.40824829 0.81649658 -0.40824829
vn -0.40824829 0.81649658 -0.40824829
vn -0.40824829 0.81649658 0.40824829
vn 0.40824829 0.81649658 0.40824829
vn -0.81649658 0.40824829 -0.40824829
vn -0.81649658 -0.40824829 -0.40824829
vn -0.81649658 -0.40824829 0.40824829
vn -0.81649658 0.40824829 0.40824829
vn -0.40824829 -0.81649658 -0.40824829
vn 0.40824829 -0.81649658 -0.40824829
vn 0.40824829 -0.81649658 0.40824829
vn -0.40824829 -0.81649658 0.40824829
vn -0.40824829 -0.81649658 -0.40824829
vn 0.40824829 -0.81649658 -0.40824829
vn 0.40824829 -0.81649658 0.40824829
vn -0.40824829 -0.81649658 0.40824829
vn 0.40824829 0.81649658 -0.40824829
vn -0.40824829 0.81649658 -0.40824829
vn -0.40824829 0.81649658 0.40824829
vn 0.40824829 0.81649658 0.40824829
vn -0.81649658 -0.40824829 0.40824829
vn -0.81649658 0.40824829 0.40824829
vn -0.81649658 0.40824829 -0.40824829
vn -0.81649658 -0.40824829 -0.40824829
vn 0.81649658 0.40824829 0.40824829
vn 0.81649658 -0.40824829 0.40824829
vn 0.81649658 -0.40824829 -0.40824829
vn 0.81649658 0.40824829 -0.40824829
vn 0.40824829 -0.81649658 0.40824829
vn -0.40824829 -0.81649658 0.40824829
vn -0.40824829 -0.81649658 -0.40824829
vn 0.40824829 -0.81649658 -0.40824829
vn -0.68884532 -0.22579694 0.68884532
vn -0.68884532 -0.22579694 -0.68884532
vn 0.67437890 -0.30070951 -0.67437890
vn 0.67437890 -0.30070951 0.67437890
vn -0.57735027 0.57735027 0.57735027
vn -0.57735027 -0.57735027 0.57735027
vn 0.66571303 -0.66571303 0.33712361
vn 0.66571303 0.66571303 0.33712361
vn -0.57735027 -0.57735027 -0.57735027
vn -0.68806996 0.68806996 -0.23047658
vn 0.68806996 0.68806996 -0.23047658
vn 0.57735027 -0.57735027 -0.57735027
vn 0.30384064 -0.67367680 0.67367680
vn 0.30384064 -0.67367680 -0.67367680
vn 0.42767324 0.63917744 -0.63917744
vn 0.42767324 0.63917744 0.63917744
vn -0.69790266 -0.16082214 0.69790266
vn -0.57735027 -0.57735027 -0.57735027
vn 0.57735027 -0.57735027 -0.57735027
vn 0.69790266 -0.16082214 0.69790266
vn 0.57735027 0.57735027 -0.57735027
vn 0.57735027 -0.57735027 -0.57735027
vn -0.57735027 -0.57735027 -0.57735027
vn -0.57735027 0.57735027 -0.57735027
vn -0.65204608 0.38687441 -0.65204608
vn -0.65204608 0.38687441 0.65204608
vn 0.69275038 0.20048398 0.69275038
vn 0.69275038 0.20048398 -0.69275038
vn 0.69041523 -0.69041523 0.21599449
vn 0.69041523 0.69041523 0.21599449
vn -0.65526414 0.65526414 0.37584282
vn -0.65526414 -0.65526414 0.37584282
vn 0.57735027 -0.57735027 -0.57735027
vn 0.57735027 -0.57735027 0.57735027
vn -0.57735027 -0.57735027 0.57735027
vn -0.57735027 -0.57735027 -0.57735027
vn -0.57735027 0.57735027 0.57735027
vn -0.57735027 -0.57735027 0.57735027
vn 0.57735027 -0.57735027 0.57735027
vn 0.57735027 0.57735027 0.57735027
vn -0.57735027 -0.57735027 -0.57735027
vn -0.66867628 0.66867628 -0.32518313
vn 0.66867628 0.66867628 -0.32518313
vn 0.57735027 -0.57735027 -0.57735027
vn 0.43024717 0.63831316 0.63831316
vn 0.43024717 -0.63831316 0.63831316
vn 0.41864728 -0.64215826 -0.64215826
vn 0.41864728 0.64215826 -0.64215826
vn 0.65484236 -0.37731018 0.65484236
vn -0.65484236 -0.37731018 0.65484236
vn -0.62559692 -0.46610834 -0.62559692
vn 0.62559692 -0.46610834 -0.62559692
vn -0.57735027 0.57735027 0.57735027
vn 0.57735027 0.57735027 0.57735027
vn 0.65532398 0.37563408 -0.65532398
vn -0.65532398 0.37563408 -0.65532398
vn 0.63197577 0.44856801 -0.63197577
vn -0.63197577 0.44856801 -0.63197577
vn -0.66604427 0.33581253 0.66604427
vn 0.66604427 0.33581253 0.66604427
vn -0.49737163 0.61344171 -0.61344171
vn -0.49737163 -0.61344171 -0.61344171
vn -0.48801266 -0.61718864 0.61718864
vn -0.48801266 0.61718864 0.61718864
vn -0.57735027 -0.57735027 -0.57735027
vn 0.57735027 -0.57735027 -0.57735027
vn 0.57735027 -0.57735027 0.57735027
vn -0.57735027 -0.57735027 0.57735027
vn -0.63579274 -0.43764733 -0.63579274
vn 0.63579274 -0.43764733 -0.63579274
vn 0.67087078 -0.31601391 0.67087078
vn -0.67087078 -0.31601391 0.67087078
vn 0.61756078 0.48707019 -0.61756078
vn -0.61756078 0.48707019 -0.61756078
vn -0.59763232 0.53448220 0.59763232
vn 0.59763232 0.53448220 0.59763232
vn -0.38905437 -0.65139723 0.65139723
vn -0.38905437 0.65139723 0.65139723
vn -0.57735027 0.57735027 -0.57735027
vn -0.57735027 -0.57735027 -0.57735027
vn 0.46113655 0.62743648 0.62743648
vn 0.46113655 -0.62743648 0.62743648
vn 0.57735027 -0.57735027 -0.57735027
vn 0.57735027 0.57735027 -0.57735027
vn 0.57735027 -0.57735027 0.57735027
vn -0.57735027 -0.57735027 0.57735027
vn -0.60986403 -0.50609458 -0.60986403
vn 0.60986403 -0.50609458 -0.60986403
vn 1.3172929e-2 -0.46240480 -0.88657108
vn 1.3172929e-2 -0.46240480 0.88657108
vn -0.30872857 -0.65975589 0.68513417
vn -0.30872857 0.65975589 0.68513417
vn 0.71484235 -0.34739561 -0.60689102
vn -0.71484235 -0.34739561 -0.60689102
vn 0.60636957 3.0740249e-2 -0.79458856
vn 0.60636957 3.0740249e-2 0.79458856
vn 0.74812828 -0.55142587 -0.36909835
vn -0.74812828 -0.55142587 -0.36909835
vn -3.7114844e-2 0.50944966 0.85969967
vn -3.7114844e-2 0.50944966 -0.85969967
vn -3.1946967e-2 0.85832691 0.51210772
vn -3.1946967e-2 -0.85832691 0.51210772
vn 0.66617752 -0.31339520 -0.67675029
vn -0.66617752 -0.31339520 -0.67675029
vn 0.67607443 -0.73682565 3.3655604e-3
vn 0.67607443 0.73682565 3.3655604e-3
vn -0.73881603 -0.67341787 -2.5675607e-2
vn 0.73881603 -0.67341787 -2.5675607e-2
vn 0.63858694 0.71156078 0.29306651
vn -0.63858694 0.71156078 0.29306651
vn -0.76859322 0.63902702 -3.0148275e-2
vn 0.76859322 0.63902702 -3.0148275e-2
vn -0.74824950 -0.66340953 -3.2383415e-3
vn -0.74824950 0.66340953 -3.2383415e-3
vn 0.44721360 -0.89442719 0.0000000e+0
vn -0.44721360 -0.89442719 0.0000000e+0
vn 0.78375231 -0.62029083 -3.1170373e-2
vn -0.78375231 -0.62029083 -3.1170373e-2
vn -0.64290178 0.76575569 1.7190804e-2
vn 0.64290178 0.76575569 1.7190804e-2
vn -0.72055474 0.63104070 -0.28738216
vn -0.72055474 -0.63104070 -0.28738216
vn 0.76702692 -0.58890047 -0.25468794
vn 0.76702692 0.58890047 -0.25468794
vn -0.56110888 -0.79449046 0.23225362
vn 0.56110888 -0.79449046 0.23225362
vn -0.40244907 -0.82223445 0.40244907
vn -0.40244907 -0.82223445 -0.40244907
vn 0.40244907 -0.82223445 -0.40244907
vn 0.40244907 -0.82223445 0.40244907
vn -0.38000838 0.38000838 0.84331919
vn -0.62503594 -0.62503594 0.46761111
vn 0.62503594 -0.62503594 0.46761111
vn 0.38000838 0.38000838 0.84331919
vn 0.88989755 -0.32255415 0.32255415
vn 0.57546680 -0.57828970 -0.57828970
vn 0.57546680 0.57828970 -0.57828970
vn 0.88989755 0.32255415 0.32255415
vn -0.48610295 -0.72622850 -0.48610295
vn 0.48610295 -0.72622850 -0.48610295
vn 0.48610295 -0.72622850 0.48610295
vn -0.48610295 -0.72622850 0.48610295
vn -0.65062428 0.39163261 -0.65062428
vn -0.62102953 0.47816801 0.62102953
vn 0.62102953 0.47816801 0.62102953
vn 0.65062428 0.39163261 -0.65062428
vn 0.35576239 -0.35576239 0.86421423
vn 0.57117398 0.57117398 0.58950875
vn -0.57117398 0.57117398 0.58950875
vn -0.35576239 -0.35576239 0.86421423
vn 0.88560557 0.32840735 0.32840735
vn 0.88560557 -0.32840735 0.32840735
vn 0.88560557 -0.32840735 -0.32840735
vn 0.88560557 0.32840735 -0.32840735
vn 0.54886514 -0.63047134 0.54886514
vn -0.29724615 -0.90735299 0.29724615
vn -0.29724615 -0.90735299 -0.29724615
vn 0.54886514 -0.63047134 -0.54886514
vn -0.58310591 0.56566331 0.58310591
vn 0.55862275 0.61309155 0.55862275
vn 0.55862275 0.61309155 -0.55862275
vn -0.58310591 0.56566331 -0.58310591
vn 0.38082209 0.84258476 -0.38082209
vn -0.38082209 0.84258476 -0.38082209
vn -0.55963440 0.61124354 0.55963440
vn 0.55963440 0.61124354 0.55963440
vn -0.91671946 0.28251144 -0.28251144
vn -0.91671946 -0.28251144 -0.28251144
vn -0.91671946 -0.28251144 0.28251144
vn -0.91671946 0.28251144 0.28251144
vn -0.39305672 -0.83127181 -0.39305672
vn 0.39305672 -0.83127181 -0.39305672
vn 0.39305672 -0.83127181 0.39305672
vn -0.39305672 -0.83127181 0.39305672
vn 0.48628969 0.72597842 -0.48628969
vn -0.48628969 0.72597842 -0.48628969
vn -0.51538642 0.68465588 0.51538642
vn 0.51538642 0.68465588 0.51538642
vn 0.47531574 -0.74037145 0.47531574
vn -0.47531574 -0.74037145 0.47531574
vn -0.27015394 -0.92413943 -0.27015394
vn 0.27015394 -0.92413943 -0.27015394
vn 0.64091308 -0.42244626 -0.64091308
vn 0.63934447 -0.42717363 0.63934447
vn -0.63934447 -0.42717363 0.63934447
vn -0.64091308 -0.42244626 -0.64091308
vn 0.44490971 -0.44490971 -0.77724559
vn -0.66859083 -0.66859083 -0.32553434
vn -0.66859083 0.66859083 -0.32553434
vn 0.44490971 0.44490971 -0.77724559
vn 0.82410459 0.40053191 -0.40053191
vn 0.42713657 0.63935684 0.63935684
vn 0.42713657 -0.63935684 0.63935684
vn 0.82410459 -0.40053191 -0.40053191
vn 0.58648056 0.55864220 0.58648056
vn 0.56853478 0.59458928 -0.56853478
vn -0.56853478 0.59458928 -0.56853478
vn -0.58648056 0.55864220 0.58648056
vn -0.45354627 0.45354627 0.76719722
vn -0.64893444 -0.64893444 0.39720045
vn 0.64893444 -0.64893444 0.39720045
vn 0.45354627 0.45354627 0.76719722
vn 0.38740277 -0.38740277 -0.83656332
vn -0.38740277 -0.38740277 -0.83656332
vn -0.38740277 0.38740277 -0.83656332
vn 0.38740277 0.38740277 -0.83656332
vn 0.55919469 -0.58621724 -0.58621724
vn 0.55919469 0.58621724 -0.58621724
vn 0.59202337 0.56987206 0.56987206
vn 0.59202337 -0.56987206 0.56987206
vn -0.53209858 -0.65859107 -0.53209858
vn 0.53209858 -0.65859107 -0.53209858
vn 0.53355970 -0.65622260 0.53355970
vn -0.53355970 -0.65622260 0.53355970
vn -0.30887661 0.89955015 0.30887661
vn 0.30887661 0.89955015 0.30887661
vn 0.30887661 0.89955015 -0.30887661
vn -0.30887661 0.89955015 -0.30887661
vn -0.92059498 -0.27613844 0.27613844
vn -0.92059498 0.27613844 0.27613844
vn -0.92059498 0.27613844 -0.27613844
vn -0.92059498 -0.27613844 -0.27613844
vn 0.31604811 -0.89455418 0.31604811
vn -0.31604811 -0.89455418 0.31604811
vn -0.31604811 -0.89455418 -0.31604811
vn 0.31604811 -0.89455418 -0.31604811
vn -0.28315056 0.91632501 0.28315056
vn 0.28315056 0.91632501 0.28315056
vn 0.28315056 0.91632501 -0.28315056
vn -0.28315056 0.91632501 -0.28315056
vn -0.55572602 0.58786418 -0.58786418
vn -0.87100279 -0.34738605 -0.34738605
vn -0.87100279 -0.34738605 0.34738605
vn -0.55572602 0.58786418 0.58786418
vn 0.68815100 -0.51305370 -0.51305370
vn 0.68815100 0.51305370 -0.51305370
vn 0.90516880 0.30055735 0.30055735
vn 0.90516880 -0.30055735 0.30055735
vn 0.34976660 -0.93683687 0.0000000e+0
vn -0.34976660 -0.93683687 -2.2295671e-17
vn 0.65388733 0.34393296 0.67390019
vn -0.65388733 0.34393296 0.67390019
vn 0.73118484 0.59866981 0.32705228
vn 0.73118484 -0.59866981 0.32705228
vn 0.85133101 0.52436894 1.6514434e-2
vn -0.85133101 0.52436894 1.6514434e-2
vn -0.58172176 -0.30322349 0.75475513
vn 0.58172176 -0.30322349 0.75475513
vn 0.95461235 -0.29785107 0.0000000e+0
vn 0.95461235 0.29785107 0.0000000e+0
vn -0.31384029 -0.76331001 -0.56467876
vn -0.31384029 -0.76331001 0.56467876
vn 1.1400512e-2 0.60919426 -0.79293908
vn 1.1400512e-2 0.60919426 0.79293908
vn -0.56027650 0.77982193 -0.27922750
vn 0.56027650 0.77982193 -0.27922750
vn -0.74526308 0.66665787 -1.2257155e-2
vn 0.74526308 0.66665787 -1.2257155e-2
vn -0.47982579 -0.83689924 -0.26337592
vn 0.47982579 -0.83689924 -0.26337592
vn -0.87686732 -0.48073183 7.7618467e-4
vn 0.87686732 -0.48073183 7.7618467e-4
vn 0.36532588 0.71441641 -0.59677986
vn 0.36532588 -0.71441641 -0.59677986
vn 0.65271197 -0.67206602 -0.34970610
vn 0.65271197 0.67206602 -0.34970610
vn -0.81737631 0.57605277 -7.6921234e-3
vn 0.81737631 0.57605277 -7.6921234e-3
vn 0.67369357 0.33822239 0.65707122
vn -0.67369357 0.33822239 0.65707122
vn 0.52701366 0.84983734 5.7527551e-3
vn 0.52701366 -0.84983734 5.7527551e-3
vn 0.70069862 -0.71345693 -8.0476584e-4
vn -0.70069862 -0.71345693 -8.0476584e-4
vn -0.72635093 -0.32330304 0.60653893
vn -0.72635093 -0.32330304 -0.60653893
vn 0.80753856 0.51936156 0.27954434
vn 0.80753856 -0.51936156 0.27954434
vn -0.45878701 0.76093953 0.45878701
vn 0.45878701 0.76093953 0.45878701
vn 0.45878701 0.76093953 -0.45878701
vn -0.45878701 0.76093953 -0.45878701
vn -0.44587530 -0.77613815 0.44587530
vn -0.44587530 -0.77613815 -0.44587530
vn 0.44587530 -0.77613815 -0.44587530
vn 0.44587530 -0.77613815 0.44587530
vn 0.43966905 0.78318725 0.43966905
vn 0.43966905 0.78318725 -0.43966905
vn -0.43966905 0.78318725 -0.43966905
vn -0.43966905 0.78318725 0.43966905
vn 0.37618467 0.84674092 -0.37618467
vn -0.37618467 0.84674092 -0.37618467
vn -0.37618467 0.84674092 0.37618467
vn 0.37618467 0.84674092 0.37618467
vn 0.44501483 0.77712521 -0.44501483
vn -0.44501483 0.77712521 -0.44501483
vn -0.44501483 0.77712521 0.44501483
vn 0.44501483 0.77712521 0.44501483
vn 0.45295333 -0.76789749 0.45295333
vn -0.45295333 -0.76789749 0.45295333
vn -0.45295333 -0.76789749 -0.45295333
vn 0.45295333 -0.76789749 -0.45295333
vn 0.45280518 0.76807222 -0.45280518
vn -0.45280518 0.76807222 -0.45280518
vn -0.45280518 0.76807222 0.45280518
vn 0.45280518 0.76807222 0.45280518
vn 0.76609896 -0.45447353 -0.45447353
vn 0.76609896 0.45447353 -0.45447353
vn 0.76609896 0.45447353 0.45447353
vn 0.76609896 -0.45447353 0.45447353
vn -0.36227769 -0.85878388 -0.36227769
vn 0.36227769 -0.85878388 -0.36227769
vn 0.36227769 -0.85878388 0.36227769
vn -0.36227769 -0.85878388 0.36227769
vn -0.76354616 -0.45661650 -0.45661650
vn -0.76354616 -0.45661650 0.45661650
vn -0.76354616 0.45661650 0.45661650
vn -0.76354616 0.45661650 -0.45661650
vn 0.48993424 0.48993424 0.72106093
vn -0.48993424 0.48993424 0.72106093
vn -0.48993424 -0.48993424 0.72106093
vn 0.48993424 -0.48993424 0.72106093
vn 0.75130379 0.46665973 0.46665973
vn 0.75130379 -0.46665973 0.46665973
vn 0.75130379 -0.46665973 -0.46665973
vn 0.75130379 0.46665973 -0.46665973
vn 0.39896687 0.82562150 -0.39896687
vn -0.39896687 0.82562150 -0.39896687
vn -0.39896687 0.82562150 0.39896687
vn 0.39896687 0.82562150 0.39896687
vn -0.42005062 -0.42005062 0.80443455
vn 0.42005062 -0.42005062 0.80443455
vn 0.42005062 0.42005062 0.80443455
vn -0.42005062 0.42005062 0.80443455
vn -0.39977141 0.82484279 -0.39977141
vn -0.39977141 0.82484279 0.39977141
vn 0.39977141 0.82484279 0.39977141
vn 0.39977141 0.82484279 -0.39977141
vn -0.40137542 0.82328340 0.40137542
vn 0.40137542 0.82328340 0.40137542
vn 0.40137542 0.82328340 -0.40137542
vn -0.40137542 0.82328340 -0.40137542
vn -0.36417400 -0.85717828 -0.36417400
vn 0.36417400 -0.85717828 -0.36417400
vn 0.36417400 -0.85717828 0.36417400
vn -0.36417400 -0.85717828 0.36417400
vn -0.44969805 -0.77171454 -0.44969805
vn 0.44969805 -0.77171454 -0.44969805
vn 0.44969805 -0.77171454 0.44969805
vn -0.44969805 -0.77171454 0.44969805
vn 0.51980157 0.51980157 -0.67794738
vn 0.51980157 -0.51980157 -0.67794738
vn -0.51980157 -0.51980157 -0.67794738
vn -0.51980157 0.51980157 -0.67794738
vn 0.71063503 -0.49749264 -0.49749264
vn 0.71063503 0.49749264 -0.49749264
vn 0.71063503 0.49749264 0.49749264
vn 0.71063503 -0.49749264 0.49749264
vn -0.42298582 0.80135260 0.42298582
vn 0.42298582 0.80135260 0.42298582
vn 0.42298582 0.80135260 -0.42298582
vn -0.42298582 0.80135260 -0.42298582
vn 0.46426658 0.46426658 0.75426327
vn -0.46426658 0.46426658 0.75426327
vn -0.46426658 -0.46426658 0.75426327
vn 0.46426658 -0.46426658 0.75426327
vn 0.73186173 0.48186015 0.48186015
vn 0.73186173 -0.48186015 0.48186015
vn 0.73186173 -0.48186015 -0.48186015
vn 0.73186173 0.48186015 -0.48186015
vn 0.36008911 -0.86062283 0.36008911
vn -0.36008911 -0.86062283 0.36008911
vn -0.36008911 -0.86062283 -0.36008911
vn 0.36008911 -0.86062283 -0.36008911
vn 0.83661104 0.38735125 0.38735125
vn 0.83661104 -0.38735125 0.38735125
vn 0.83661104 -0.38735125 -0.38735125
vn 0.83661104 0.38735125 -0.38735125
vn -0.57735027 0.57735027 -0.57735027
vn -0.57735027 0.57735027 0.57735027
vn 0.57735027 0.57735027 0.57735027
vn 0.57735027 0.57735027 -0.57735027

usemtl station1_mat_1

f 115//115 148//148 147//147 116//116
f 115//115 155//155 158//158 119//119
f 115//115 179//179 182//182 127//127
f 115//115 228//228 227//227 117//117
f 115//115 231//231 234//234 146//146
f 116//116 147//147 150//150 120//120
f 116//116 152//152 151//151 118//118
f 116//116 180//180 179//179 115//115
f 116//116 216//216 215//215 128//128
f 117//117 130//130 129//129 118//118
f 117//117 145//145 144//144 130//130
f 117//117 156//156 155//155 115//115
f 117//117 227//227 230//230 145//145
f 117//117 613//613 616//616 121//121
f 118//118 142//142 141//141 116//116
f 118//118 151//151 154//154 122//122
f 118//118 219//219 222//222 142//142
f 118//118 614//614 613//613 117//117
f 119//119 149//149 148//148 115//115
f 119//119 158//158 157//157 121//121
f 119//119 164//164 163//163 120//120
f 119//119 196//196 195//195 124//124
f 120//120 150//150 149//149 119//119
f 120//120 153//153 152//152 116//116
f 120//120 163//163 166//166 123//123
f 120//120 208//208 207//207 122//122
f 120//120 211//211 214//214 138//138
f 121//121 134//134 133//133 119//119
f 121//121 157//157 156//156 117//117
f 121//121 171//171 174//174 125//125
f 121//121 199//199 202//202 134//134
f 121//121 616//616 615//615 122//122
f 122//122 154//154 153//153 120//120
f 122//122 172//172 171//171 121//121
f 122//122 204//204 203//203 126//126
f 122//122 207//207 210//210 137//137
f 122//122 615//615 614//614 118//118
f 123//123 159//159 162//162 126//126
f 123//123 166//166 165//165 124//124
f 123//123 212//212 211//211 120//120
f 124//124 160//160 159//159 123//123
f 124//124 165//165 164//164 119//119
f 124//124 192//192 191//191 125//125
f 124//124 195//195 198//198 132//132
f 125//125 161//161 160//160 124//124
f 125//125 174//174 173//173 126//126
f 125//125 191//191 194//194 131//131
f 125//125 200//200 199//199 121//121
f 126//126 136//136 135//135 123//123
f 126//126 162//162 161//161 125//125
f 126//126 173//173 172//172 122//122
f 126//126 203//203 206//206 136//136
f 127//127 182//182 181//181 128//128
f 127//127 223//223 226//226 143//143
f 127//127 232//232 231//231 115//115
f 128//128 129//129 130//130 127//127
f 128//128 140//140 139//139 129//129
f 128//128 181//181 180//180 116//116
f 128//128 215//215 218//218 140//140
f 129//129 220//220 219//219 118//118
f 130//130 224//224 223//223 127//127
f 131//131 167//167 170//170 134//134
f 131//131 194//194 193//193 132//132
f 131//131 201//201 200//200 125//125
f 132//132 168//168 167//167 131//131
f 132//132 193//193 192//192 124//124
f 132//132 198//198 197//197 133//133
f 133//133 169//169 168//168 132//132
f 133//133 197//197 196//196 119//119
f 134//134 170//170 169//169 133//133
f 134//134 202//202 201//201 131//131
f 135//135 175//175 178//178 138//138
f 135//135 213//213 212//212 123//123
f 136//136 176//176 175//175 135//135
f 136//136 206//206 205//205 137//137
f 137//137 177//177 176//176 136//136
f 137//137 205//205 204//204 122//122
f 137//137 210//210 209//209 138//138
f 138//138 178//178 177//177 137//137
f 138//138 209//209 208//208 120//120
f 138//138 214//214 213//213 135//135
f 139//139 183//183 186//186 142//142
f 139//139 221//221 220//220 129//129
f 140//140 184//184 183//183 139//139
f 140//140 218//218 217//217 141//141
f 141//141 185//185 184//184 140//140
f 141//141 217//217 216//216 116//116
f 142//142 186//186 185//185 141//141
f 142//142 222//222 221//221 139//139
f 143//143 187//187 190//190 146//146
f 143//143 226//226 225//225 144//144
f 143//143 233//233 232//232 127//127
f 144//144 188//188 187//187 143//143
f 144//144 225//225 224//224 130//130
f 145//145 189//189 188//188 144//144
f 145//145 230//230 229//229 146//146
f 146//146 190//190 189//189 145//145
f 146//146 229//229 228//228 115//115
f 146//146 234//234 233//233 143//143
f 147//147 235//235 324//324 238//238 150//150
f 148//148 236//236 235//235 147//147
f 149//149 237//237 323//323 236//236 148//148
f 150//150 238//238 237//237 149//149
f 151//151 239//239 326//326 242//242 154//154
f 152//152 240//240 239//239 151//151
f 153//153 241//241 325//325 240//240 152//152
f 154//154 242//242 241//241 153//153
f 155//155 243//243 246//246 158//158
f 156//156 244//244 328//328 243//243 155//155
f 157//157 245//245 244//244 156//156
f 158//158 246//246 327//327 245//245 157//157
f 159//159 247//247 330//330 250//250 162//162
f 160//160 248//248 247//247 159//159
f 161//161 249//249 329//329 248//248 160//160
f 162//162 250//250 249//249 161//161
f 163//163 251//251 254//254 166//166
f 164//164 252//252 332//332 251//251 163//163
f 165//165 253//253 252//252 164//164
f 166//166 254//254 331//331 253//253 165//165
f 167//167 255//255 258//258 170//170
f 168//168 256//256 255//255 167//167
f 169//169 257//257 256//256 168//168
f 170//170 258//258 257//257 169//169
f 171//171 259//259 334//334 262//262 174//174
f 172//172 260//260 259//259 171//171
f 173//173 261//261 333//333 260//260 172//172
f 174//174 262//262 261//261 173//173
f 175//175 263//263 336//336 266//266 178//178
f 176//176 264//264 263//263 175//175
f 177//177 265//265 335//335 264//264 176//176
f 178//178 266//266 265//265 177//177
f 179//179 267//267 270//270 182//182
f 180//180 268//268 267//267 179//179
f 181//181 269//269 268//268 180//180
f 182//182 270//270 269//269 181//181
f 183//183 271//271 274//274 186//186
f 184//184 272//272 271//271 183//183
f 185//185 273//273 272//272 184//184
f 186//186 274//274 273//273 185//185
f 187//187 275//275 278//278 190//190
f 188//188 276//276 338//338 275//275 187//187
f 189//189 277//277 276//276 188//188
f 190//190 278//278 337//337 277//277 189//189
f 191//191 279//279 340//340 282//282 194//194
f 192//192 280//280 279//279 191//191
f 193//193 281//281 339//339 280//280 192//192
f 194//194 282//282 281//281 193//193
f 195//195 283//283 342//342 286//286 198//198
f 196//196 284//284 283//283 195//195
f 197//197 285//285 341//341 284//284 196//196
f 198//198 286//286 285//285 197//197
f 199//199 287//287 344//344 290//290 202//202
f 200//200 288//288 287//287 199//199
f 201//201 289//289 343//343 288//288 200//200
f 202//202 290//290 289//289 201//201
f 203//203 291//291 346//346 294//294 206//206
f 204//204 292//292 291//291 203//203
f 205//205 293//293 345//345 292//292 204//204
f 206//206 294//294 293//293 205//205
f 207//207 295//295 348//348 298//298 210//210
f 208//208 296//296 295//295 207//207
f 209//209 297//297 347//347 296//296 208//208
f 210//210 298//298 297//297 209//209
f 211//211 299//299 350//350 302//302 214//214
f 212//212 300//300 299//299 211//211
f 213//213 301//301 349//349 300//300 212//212
f 214//214 302//302 301//301 213//213
f 215//215 303//303 352//352 306//306 218//218
f 216//216 304//304 303//303 215//215
f 217//217 305//305 351//351 304//304 216//216
f 218//218 306//306 305//305 217//217
f 219//219 307//307 354//354 310//310 222//222
f 220//220 308//308 307//307 219//219
f 221//221 309//309 353//353 308//308 220//220
f 222//222 310//310 309//309 221//221
f 223//223 311//311 356//356 314//314 226//226
f 224//224 312//312 311//311 223//223
f 225//225 313//313 355//355 312//312 224//224
f 226//226 314//314 313//313 225//225
f 227//227 315//315 358//358 318//318 230//230
f 228//228 316//316 315//315 227//227
f 229//229 317//317 357//357 316//316 228//228
f 230//230 318//318 317//317 229//229
f 231//231 319//319 360//360 322//322 234//234
f 232//232 320//320 319//319 231//231
f 233//233 321//321 359//359 320//320 232//232
f 234//234 322//322 321//321 233//233
f 235//235 419//419 418//418 324//324
f 236//236 420//420 495//495 419//419 235//235
f 237//237 363//363 362//362 323//323
f 238//238 364//364 473//473 363//363 237//237
f 240//240 325//325 326//326 239//239
f 241//241 367//367 366//366 325//325
f 242//242 368//368 475//475 367//367 241//241
f 244//244 423//423 422//422 328//328
f 245//245 424//424 497//497 423//423 244//244
f 246//246 243//243 328//328 327//327
f 247//247 427//427 426//426 330//330
f 248//248 428//428 499//499 427//427 247//247
f 249//249 371//371 370//370 329//329
f 250//250 372//372 477//477 371//371 249//249
f 251//251 376//376 375//375 254//254
f 252//252 253//253 331//331 332//332
f 254//254 375//375 374//374 331//331
f 256//256 257//257 258//258 255//255
f 259//259 431//431 430//430 334//334
f 260//260 432//432 501//501 431//431 259//259
f 261//261 379//379 378//378 333//333
f 262//262 380//380 479//479 379//379 261//261
f 263//263 435//435 434//434 336//336
f 264//264 436//436 503//503 435//435 263//263
f 265//265 383//383 382//382 335//335
f 266//266 384//384 481//481 383//383 265//265
f 268//268 269//269 270//270 267//267
f 272//272 273//273 274//274 271//271
f 276//276 439//439 438//438 338//338
f 277//277 440//440 439//439 276//276
f 278//278 275//275 338//338 337//337
f 279//279 443//443 505//505 442//442 340//340
f 280//280 444//444 443//443 279//279
f 281//281 387//387 483//483 386//386 339//339
f 282//282 388//388 387//387 281//281
f 283//283 447//447 507//507 446//446 342//342
f 284//284 448//448 447//447 283//283
f 285//285 391//391 390//390 341//341
f 286//286 392//392 485//485 391//391 285//285
f 288//288 343//343 344//344 287//287
f 289//289 395//395 394//394 343//343
f 290//290 396//396 487//487 395//395 289//289
f 291//291 451//451 450//450 346//346
f 292//292 452//452 451//451 291//291
f 293//293 399//399 489//489 398//398 345//345
f 294//294 400//400 399//399 293//293
f 295//295 455//455 454//454 348//348
f 296//296 456//456 455//455 295//295
f 297//297 403//403 402//402 347//347
f 298//298 404//404 403//403 297//297
f 300//300 349//349 350//350 299//299
f 301//301 302//302 350//350 349//349
f 303//303 459//459 458//458 352//352
f 304//304 460//460 459//459 303//303
f 305//305 407//407 406//406 351//351
f 306//306 408//408 407//407 305//305
f 307//307 463//463 462//462 354//354
f 308//308 464//464 463//463 307//307
f 309//309 411//411 491//491 410//410 353//353
f 310//310 412//412 411//411 309//309
f 311//311 467//467 466//466 356//356
f 312//312 468//468 509//509 467//467 311//311
f 313//313 314//314 356//356 355//355
f 315//315 471//471 511//511 470//470 358//358
f 316//316 472//472 471//471 315//315
f 317//317 318//318 358//358 357//357
f 320//320 359//359 360//360 319//319
f 321//321 415//415 493//493 414//414 359//359
f 322//322 416//416 415//415 321//321
f 323//323 362//362 474//474 361//361 324//324
f 323//323 417//417 420//420 236//236
f 324//324 361//361 364//364 238//238
f 324//324 418//418 496//496 417//417 323//323
f 325//325 366//366 476//476 365//365 326//326
f 326//326 365//365 368//368 242//242
f 327//327 421//421 424//424 245//245
f 328//328 422//422 498//498 421//421 327//327
f 329//329 370//370 478//478 369//369 330//330
f 329//329 425//425 428//428 248//248
f 330//330 369//369 372//372 250//250
f 330//330 426//426 500//500 425//425 329//329
f 331//331 374//374 373//373 332//332
f 332//332 373//373 376//376 251//251
f 333//333 378//378 480//480 377//377 334//334
f 333//333 429//429 432//432 260//260
f 334//334 377//377 380//380 262//262
f 334//334 430//430 502//502 429//429 333//333
f 335//335 382//382 482//482 381//381 336//336
f 335//335 433//433 436//436 264//264
f 336//336 381//381 384//384 266//266
f 336//336 434//434 504//504 433//433 335//335
f 337//337 437//437 440//440 277//277
f 338//338 438//438 437//437 337//337
f 339//339 386//386 385//385 340//340
f 339//339 441//441 506//506 444//444 280//280
f 340//340 385//385 484//484 388//388 282//282
f 340//340 442//442 441//441 339//339
f 341//341 390//390 486//486 389//389 342//342
f 341//341 445//445 508//508 448//448 284//284
f 342//342 389//389 392//392 286//286
f 342//342 446//446 445//445 341//341
f 343//343 394//394 488//488 393//393 344//344
f 344//344 393//393 396//396 290//290
f 345//345 398//398 397//397 346//346
f 345//345 449//449 452//452 292//292
f 346//346 397//397 490//490 400//400 294//294
f 346//346 450//450 449//449 345//345
f 347//347 402//402 401//401 348//348
f 347//347 453//453 456//456 296//296
f 348//348 401//401 404//404 298//298
f 348//348 454//454 453//453 347//347
f 351//351 406//406 405//405 352//352
f 351//351 457//457 460//460 304//304
f 352//352 405//405 408//408 306//306
f 352//352 458//458 457//457 351//351
f 353//353 410//410 409//409 354//354
f 353//353 461//461 464//464 308//308
f 354//354 409//409 492//492 412//412 310//310
f 354//354 462//462 461//461 353//353
f 355//355 465//465 468//468 312//312
f 356//356 466//466 510//510 465//465 355//355
f 357//357 469//469 512//512 472//472 316//316
f 358//358 470//470 469//469 357//357
f 359//359 414//414 413//413 360//360
f 360//360 413//413 494//494 416//416 322//322
f 362//362 363//363 473//473 474//474
f 364//364 361//361 474//474 473//473
f 366//366 555//555 554//554 476//476
f 367//367 556//556 555//555 366//366
f 368//368 365//365 476//476 475//475
f 370//370 559//559 558//558 478//478
f 371//371 560//560 559//559 370//370
f 372//372 369//369 478//478 477//477
f 374//374 375//375 376//376 373//373
f 377//377 516//516 515//515 380//380
f 378//378 563//563 562//562 480//480
f 379//379 564//564 563//563 378//378
f 380//380 515//515 514//514 479//479
f 382//382 567//567 566//566 482//482
f 383//383 568//568 567//567 382//382
f 384//384 381//381 482//482 481//481
f 386//386 483//483 484//484 385//385
f 387//387 388//388 484//484 483//483
f 389//389 520//520 519//519 392//392
f 390//390 391//391 485//485 486//486
f 392//392 519//519 518//518 485//485
f 393//393 524//524 523//523 396//396
f 394//394 571//571 570//570 488//488
f 395//395 572//572 571//571 394//394
f 396//396 523//523 522//522 487//487
f 398//398 489//489 490//490 397//397
f 399//399 527//527 526//526 489//489
f 400//400 528//528 527//527 399//399
f 402//402 403//403 404//404 401//401
f 406//406 407//407 408//408 405//405
f 409//409 575//575 574//574 492//492
f 410//410 576//576 575//575 409//409
f 411//411 531//531 530//530 491//491
f 412//412 532//532 531//531 411//411
f 413//413 579//579 578//578 494//494
f 414//414 580//580 579//579 413//413
f 415//415 416//416 494//494 493//493
f 417//417 536//536 535//535 420//420
f 418//418 583//583 582//582 496//496
f 419//419 584//584 583//583 418//418
f 420//420 535//535 534//534 495//495
f 422//422 587//587 586//586 498//498
f 423//423 588//588 587//587 422//422
f 424//424 421//421 498//498 497//497
f 426//426 591//591 590//590 500//500
f 427//427 592//592 591//591 426//426
f 428//428 425//425 500//500 499//499
f 429//429 540//540 539//539 432//432
f 430//430 595//595 594//594 502//502
f 431//431 596//596 595//595 430//430
f 432//432 539//539 538//538 501//501
f 434//434 599//599 598//598 504//504
f 435//435 600//600 599//599 434//434
f 436//436 433//433 504//504 503//503
f 438//438 439//439 440//440 437//437
f 441//441 603//603 602//602 506//506
f 442//442 604//604 603//603 441//441
f 443//443 543//543 542//542 505//505
f 444//444 544//544 543//543 443//443
f 445//445 607//607 606//606 508//508
f 446//446 608//608 607//607 445//445
f 447//447 547//547 546//546 507//507
f 448//448 548//548 547//547 447//447
f 450//450 451//451 452//452 449//449
f 454//454 455//455 456//456 453//453
f 458//458 459//459 460//460 457//457
f 462//462 463//463 464//464 461//461
f 465//465 552//552 551//551 468//468
f 466//466 467//467 509//509 510//510
f 468//468 551//551 550//550 509//509
f 469//469 611//611 610//610 512//512
f 470//470 612//612 611//611 469//469
f 471//471 472//472 512//512 511//511
f 475//475 553//553 556//556 367//367
f 476//476 554//554 553//553 475//475
f 477//477 557//557 560//560 371//371
f 478//478 558//558 557//557 477//477
f 479//479 514//514 513//513 480//480
f 479//479 561//561 564//564 379//379
f 480//480 513//513 516//516 377//377
f 480//480 562//562 561//561 479//479
f 481//481 565//565 568//568 383//383
f 482//482 566//566 565//565 481//481
f 485//485 518//518 517//517 486//486
f 486//486 517//517 520//520 389//389
f 487//487 522//522 521//521 488//488
f 487//487 569//569 572//572 395//395
f 488//488 521//521 524//524 393//393
f 488//488 570//570 569//569 487//487
f 489//489 526//526 525//525 490//490
f 490//490 525//525 528//528 400//400
f 491//491 530//530 529//529 492//492
f 491//491 573//573 576//576 410//410
f 492//492 529//529 532//532 412//412
f 492//492 574//574 573//573 491//491
f 493//493 577//577 580//580 414//414
f 494//494 578//578 577//577 493//493
f 495//495 534//534 533//533 496//496
f 495//495 581//581 584//584 419//419
f 496//496 533//533 536//536 417//417
f 496//496 582//582 581//581 495//495
f 497//497 585//585 588//588 423//423
f 498//498 586//586 585//585 497//497
f 499//499 589//589 592//592 427//427
f 500//500 590//590 589//589 499//499
f 501//501 538//538 537//537 502//502
f 501//501 593//593 596//596 431//431
f 502//502 537//537 540//540 429//429
f 502//502 594//594 593//593 501//501
f 503//503 597//597 600//600 435//435
f 504//504 598//598 597//597 503//503
f 505//505 542//542 541//541 506//506
f 505//505 601//601 604//604 442//442
f 506//506 541//541 544//544 444//444
f 506//506 602//602 601//601 505//505
f 507//507 546//546 545//545 508//508
f 507//507 605//605 608//608 446//446
f 508//508 545//545 548//548 448//448
f 508//508 606//606 605//605 507//507
f 509//509 550//550 549//549 510//510
f 510//510 549//549 552//552 465//465
f 511//511 609//609 612//612 470//470
f 512//512 610//610 609//609 511//511
f 514//514 515//515 516//516 513//513
f 518//518 519//519 520//520 517//517
f 522//522 523//523 524//524 521//521
f 526//526 527//527 528//528 525//525
f 530//530 531//531 532//532 529//529
f 534//534 535//535 536//536 533//533
f 538//538 539//539 540//540 537//537
f 542//542 543//543 544//544 541//541
f 546//546 547//547 548//548 545//545
f 550//550 551//551 552//552 549//549
f 554//554 555//555 556//556 553//553
f 558//558 559//559 560//560 557//557
f 562//562 563//563 564//564 561//561
f 566//566 567//567 568//568 565//565
f 570//570 571//571 572//572 569//569
f 574//574 575//575 576//576 573//573
f 578//578 579//579 580//580 577//577
f 582//582 583//583 584//584 581//581
f 586//586 587//587 588//588 585//585
f 590//590 591//591 592//592 589//589
f 594//594 595//595 596//596 593//593
f 598//598 599//599 600//600 597//597
f 602//602 603//603 604//604 601//601
f 606//606 607//607 608//608 605//605
f 610//610 611//611 612//612 609//609
f 614//614 615//615 616//616 613//613
